<?xml version="1.0" encoding="utf-8"?>
<!-- Generator: Adobe Illustrator 27.9.0, SVG Export Plug-In . SVG Version: 6.00 Build 0)  -->
<svg version="1.1" id="Layer_1" xmlns="http://www.w3.org/2000/svg" xmlns:xlink="http://www.w3.org/1999/xlink" x="0px" y="0px"
	 viewBox="0 0 122.9 152.2" style="enable-background:new 0 0 122.9 152.2;" xml:space="preserve">
<style type="text/css">
	.st0{fill:#F6D6A2;}
	.st1{fill:#C46B29;}
	.st2{fill:#A7551F;}
	.st3{fill:#F1C481;}
	.st4{fill:#2C2728;}
	.st5{fill:#161515;}
	.st6{fill:#FDF2E2;}
	.st7{fill:#067300;}
</style>
<g>
	<g>
		<path id="background" class="st0" d="M57.4,93.1L57.4,93.1c2.9-2,6.1-4.2,6.5-4.6c0.1-0.1,0.2-0.2,0.4-0.4
			c0.6-0.6,1.4-1.3,1.8-3.5c0.1-0.5,0.2-1.1,0.2-1.6c0.3-2.5,0.6-5,3.7-6.7c3.4-1.9,8.2-3.1,9-3.2c0.9-0.2,4-0.9,5-3.2
			c1.3-2.9,4.3-5,7.7-5.5V51.8h-6.7c-0.3,0.5-0.9,1.4-2.1,2.7c-0.5,0.6-0.6,1.6-0.6,2.6c0,0.2,0,0.5,0,0.7c-0.1,1.5-1.6,2.6-2.8,3.3
			l0,0c-1.2,0.7-2.5,1.3-3.7,1.8c-0.6,0.2-1.1,0.5-1.6,0.7c-2.3,1.1-4.6,2.2-6.9,3.2c-0.5,0.2-1.1,0.5-1.7,0.7c-1.9,0.8-3.8,1.6-5,3
			c-0.7,0.8-1,1.8-1.4,2.9c-0.1,0.4-0.3,0.8-0.4,1.2c-0.8,2-1.3,3.6-1.8,5c-0.1,0.4-0.3,0.9-0.4,1.3c-0.7,2.2-1.4,4.6-3.8,6
			c-1,0.6-2.3,1.1-3.6,1.1c-1.1,0-2.1-0.3-2.9-1.1c-0.8-0.7-1.2-1.8-1.4-3.2c0-0.4-0.1-0.8-0.1-1.2c-0.3-3-0.5-5.8-1.2-8.7
			c-0.3-1.4-0.8-2.4-1.4-3.2c-0.6-0.8-1.6-1.1-2.7-1.5l-0.2-0.1c-1.1-0.4-2.3-0.9-3-2.1c-0.9-1.4-0.9-3.3-0.9-4.8c0-0.3,0-0.5,0-0.8
			c0-1.8,0.2-3.9,1.6-5.4c0.9-1,2.1-1.6,3.1-2.2c0.3-0.2,0.7-0.4,1-0.6c0.6-0.4,0.8-0.9,0.8-1.4H31.8V58c0,0.6-0.5,1.2-1.2,1.2v2.8
			c0.6,0,1.2,0.5,1.2,1.2v26.8c0,2.9-2.3,3.9-3.5,4l-0.1,0l-0.1,0c-5.8-0.4-7.2,4.5-7.3,4.7c0,0.1,0,0.1-0.1,0.2
			c0.1,0.8,0.3,1.6,0.7,2.3h30.8C53.1,98.5,54.5,95.4,57.4,93.1z M44.3,99.2c-0.1,0.1-0.3,0.1-0.4,0.1c-0.4,0-0.8-0.2-0.9-0.6
			c-0.5-1.2-2.1-3.4-2.9-3.4c-0.5,0.1-1.9,1.8-2.9,3.5c-0.3,0.5-0.9,0.7-1.4,0.4c-0.5-0.3-0.7-0.9-0.4-1.4c0.8-1.4,2.8-4.5,4.7-4.5
			c2.6,0,4.7,4.6,4.7,4.6C45.1,98.4,44.9,99,44.3,99.2z"/>
		<path id="brown_top_L" class="st1" d="M42.1,55c-0.3,0.2-0.7,0.4-1,0.6c-1,0.6-2,1.2-2.7,1.9c-1,1-1.1,2.5-1.1,4
			c0,0.3,0,0.5,0,0.8c0,1.3,0,2.8,0.5,3.6c0.4,0.6,1.3,1,2,1.3l0.2,0.1c1.3,0.5,2.6,0.9,3.6,2.2c0.8,1,1.4,2.3,1.8,4
			c0.7,3,1,6,1.2,9c0,0.4,0.1,0.8,0.1,1.2c0.1,0.9,0.3,1.5,0.7,1.9c1.1,1,3,0.4,4-0.2c1.8-1.1,2.3-2.9,2.9-4.9
			c0.1-0.4,0.3-0.9,0.4-1.3c0.5-1.5,1.1-3.1,1.9-5.1c0.1-0.4,0.3-0.7,0.4-1.1c0.4-1.2,0.8-2.4,1.7-3.5c1.5-1.8,3.8-2.8,5.8-3.6
			c0.6-0.2,1.1-0.5,1.6-0.7c2.3-1.1,4.6-2.1,6.9-3.2c0.5-0.3,1.1-0.5,1.7-0.7c1.2-0.5,2.4-1,3.5-1.7l0,0c1.6-1,1.8-1.5,1.8-1.7
			c0-0.2,0-0.4,0-0.6c0.1-1.2,0.1-2.7,1.1-3.8c0.4-0.5,0.8-1,1.1-1.4H43.9C43.9,52.8,43.5,54.1,42.1,55z M56.3,58.9
			c0.8-1.4,2.8-4.5,4.7-4.5c2.6,0,4.7,4.6,4.7,4.6c0.2,0.5,0,1.1-0.5,1.4c-0.1,0.1-0.3,0.1-0.4,0.1c-0.4,0-0.8-0.2-0.9-0.6
			c-0.5-1.2-2.1-3.4-2.9-3.4c-0.5,0.1-1.9,1.8-2.9,3.5c-0.3,0.5-0.9,0.7-1.4,0.4C56.2,60,56,59.4,56.3,58.9z M43.9,64.4
			c0.8-1.4,2.8-4.5,4.7-4.5c2.6,0,4.7,4.6,4.7,4.6c0.2,0.5,0,1.1-0.5,1.4c-0.1,0.1-0.3,0.1-0.4,0.1c-0.4,0-0.8-0.2-0.9-0.6
			c-0.5-1.2-2.1-3.4-2.9-3.4c-0.5,0.1-1.9,1.8-2.9,3.5c-0.3,0.5-0.9,0.7-1.4,0.4C43.7,65.5,43.6,64.9,43.9,64.4z"/>
		<path id="brown_bottom_R" class="st1" d="M97.2,99.3c1.2-1.2,1.2-3.7,1.3-5.1c-0.9-0.3-1.9-0.5-3.2-0.4l-0.1,0l-0.1,0
			c-1.2-0.1-3.5-1.1-3.5-4v-6.9c0-0.6,0.5-1.2,1.2-1.2v-3.1c-0.6,0-1.2-0.5-1.2-1.2V66.4c-2.5,0.5-4.8,2.2-5.8,4.3
			c-1.4,3.1-5,4.1-6.5,4.3c-0.7,0.1-5.3,1.3-8.4,3c-2.2,1.2-2.4,2.9-2.7,5.2c-0.1,0.5-0.1,1.1-0.2,1.7c-0.5,2.9-1.7,4-2.4,4.6
			c-0.1,0.1-0.2,0.2-0.3,0.3c-0.6,0.7-5.3,3.8-6.7,4.9c-2.2,1.8-3.4,4.2-4.1,6.3h36.3C96.6,100.6,97.2,99.3,97.2,99.3z M85.7,95.2
			c-0.1,0.1-0.3,0.1-0.4,0.1c-0.4,0-0.8-0.2-0.9-0.6c-0.5-1.2-2.1-3.4-2.9-3.4c-0.5,0.1-1.9,1.7-2.8,3.4c0.4,0.7,0.7,1.2,0.7,1.2
			c0.2,0.5,0,1.1-0.5,1.4c-0.1,0.1-0.3,0.1-0.4,0.1c-0.4,0-0.8-0.2-0.9-0.6c-0.5-1.2-2.1-3.4-2.9-3.4c-0.5,0.1-1.9,1.8-2.9,3.5
			c-0.3,0.5-0.9,0.7-1.4,0.4c-0.5-0.3-0.7-0.9-0.4-1.4c0.8-1.4,2.8-4.5,4.7-4.5c1,0,2,0.7,2.8,1.6c1-1.5,2.6-3.6,4.1-3.6
			c2.6,0,4.7,4.6,4.7,4.6C86.5,94.3,86.2,94.9,85.7,95.2z"/>
		<path id="dark_brown_shadow" class="st2" d="M102.6,98.6c0-0.2-0.9-3.2-4.1-4.4c-0.1,1.4-0.1,3.9-1.3,5.1c0,0-0.7,1.4-6.4,1.8
			H54.5c-0.4,1.1-0.6,2.1-0.7,2.8h43.3c2.9,0,5.2-2.2,5.5-5C102.6,98.7,102.6,98.6,102.6,98.6z"/>
		<path id="light_brown_shadow" class="st3" d="M21.5,101c1,1.7,2.7,2.8,4.8,2.8h25.4c0.1-0.7,0.3-1.6,0.6-2.8H21.5z"/>
		<path class="st4" d="M44.2,65.8c0.5,0.3,1.1,0.1,1.4-0.4c1-1.7,2.4-3.4,2.9-3.5c0.8,0,2.4,2.2,2.9,3.4c0.2,0.4,0.5,0.6,0.9,0.6
			c0.1,0,0.3,0,0.4-0.1c0.5-0.2,0.7-0.8,0.5-1.4c0,0-2.1-4.6-4.7-4.6c-1.9,0-3.9,3.2-4.7,4.5C43.6,64.9,43.7,65.5,44.2,65.8z"/>
		<path class="st4" d="M56.7,60.3c0.5,0.3,1.1,0.1,1.4-0.4c1-1.7,2.4-3.4,2.9-3.5c0.8,0,2.4,2.2,2.9,3.4c0.2,0.4,0.5,0.6,0.9,0.6
			c0.1,0,0.3,0,0.4-0.1c0.5-0.2,0.7-0.8,0.5-1.4c0,0-2.1-4.6-4.7-4.6c-1.9,0-3.9,3.2-4.7,4.5C56,59.4,56.2,60,56.7,60.3z"/>
		<path class="st4" d="M40.1,93.2c-1.9,0-3.9,3.2-4.7,4.5c-0.3,0.5-0.1,1.1,0.4,1.4c0.5,0.3,1.1,0.1,1.4-0.4c1-1.7,2.4-3.4,2.9-3.5
			c0.8,0,2.4,2.2,2.9,3.4c0.2,0.4,0.5,0.6,0.9,0.6c0.1,0,0.3,0,0.4-0.1c0.5-0.2,0.7-0.8,0.5-1.4C44.8,97.8,42.7,93.2,40.1,93.2z"/>
		<path class="st4" d="M86.2,93.8c0,0-2.1-4.6-4.7-4.6c-1.5,0-3.2,2.1-4.1,3.6c-0.8-0.9-1.7-1.6-2.8-1.6c-1.9,0-3.9,3.2-4.7,4.5
			c-0.3,0.5-0.1,1.1,0.4,1.4c0.5,0.3,1.1,0.1,1.4-0.4c1-1.7,2.4-3.4,2.9-3.5c0.8,0,2.4,2.2,2.9,3.4c0.2,0.4,0.5,0.6,0.9,0.6
			c0.1,0,0.3,0,0.4-0.1c0.5-0.2,0.7-0.8,0.5-1.4c0,0-0.2-0.5-0.7-1.2c1-1.7,2.3-3.3,2.8-3.4c0.8,0,2.4,2.2,2.9,3.4
			c0.2,0.4,0.5,0.6,0.9,0.6c0.1,0,0.3,0,0.4-0.1C86.2,94.9,86.5,94.3,86.2,93.8z"/>
		<path id="black_outline" class="st5" d="M104.7,97.6C104.7,97.6,104.7,97.6,104.7,97.6l0-48.5c-0.5-1.6-2.6-4.5-6.1-5.6
			c-2.5-0.8-4.2-0.1-5.2,0.6c-1.2,0.9-1.8,2.1-1.8,3v2.7H31.8V47c0-0.8-0.6-2.1-1.8-3c-1-0.7-2.7-1.4-5.2-0.6
			c-3.6,1.1-5.6,4-6.1,5.6v8.7v39.8v0.6c0,0.2,0,0.4,0,0.6c0.3,3.9,3.6,7,7.5,7h70.9c4,0,7.2-3.1,7.5-7c0-0.2,0-0.4,0-0.6
			L104.7,97.6C104.7,97.6,104.7,97.6,104.7,97.6z M43.9,51.8h38.5c-0.3,0.4-0.7,0.9-1.1,1.4c-1,1.1-1.1,2.6-1.1,3.8
			c0,0.2,0,0.4,0,0.6c0,0.2-0.2,0.7-1.8,1.7l0,0C77.2,60,76,60.5,74.8,61c-0.5,0.2-1.1,0.5-1.7,0.7c-2.3,1.1-4.6,2.2-6.9,3.2
			c-0.5,0.2-1,0.5-1.6,0.7c-2,0.8-4.3,1.8-5.8,3.6c-0.9,1.1-1.3,2.3-1.7,3.5c-0.1,0.4-0.3,0.8-0.4,1.1c-0.8,2-1.4,3.6-1.9,5.1
			c-0.2,0.5-0.3,0.9-0.4,1.3c-0.6,2-1.1,3.8-2.9,4.9c-1,0.6-3,1.2-4,0.2c-0.4-0.4-0.6-1-0.7-1.9c0-0.4-0.1-0.8-0.1-1.2
			c-0.3-2.9-0.5-6-1.2-9c-0.4-1.7-1-3-1.8-4c-1-1.2-2.3-1.7-3.6-2.2l-0.2-0.1c-0.8-0.3-1.6-0.7-2-1.3c-0.6-0.9-0.6-2.3-0.5-3.6
			c0-0.3,0-0.6,0-0.8c0-1.5,0.1-3,1.1-4c0.7-0.8,1.7-1.3,2.7-1.9c0.3-0.2,0.7-0.4,1-0.6C43.5,54.1,43.9,52.8,43.9,51.8z M51.7,103.8
			H26.3c-2,0-3.8-1.1-4.8-2.8c-0.4-0.7-0.6-1.5-0.7-2.3c0-0.1,0-0.1,0.1-0.2c0.1-0.2,1.5-5.2,7.3-4.7l0.1,0l0.1,0
			c1.2-0.1,3.5-1.1,3.5-4V63c0-0.6-0.5-1.2-1.2-1.2c0,0,0,0,0,0c-0.6,0-1.2,0.5-1.2,1.2v26.8c0,1.3-1,1.6-1.3,1.7
			c-3.5-0.2-5.8,1.1-7.4,2.7V57.9v-0.5c0-0.4,0-7.4,0-7.4c0.1-0.4,1.1-2.3,3.2-3.5c0.5-0.3,1-0.5,1.6-0.7c1.2-0.4,2.2-0.3,3,0.2
			c0.7,0.4,0.9,1,1,1.2v2.7v1v1V58c0,0.6,0.5,1.2,1.2,1.2c0,0,0,0,0,0c0.6,0,1.2-0.5,1.2-1.2v-6.1h10.1c-0.1,0.5-0.3,1.1-0.8,1.4
			c-0.3,0.2-0.6,0.4-1,0.6c-1.1,0.6-2.2,1.3-3.1,2.2c-1.5,1.5-1.7,3.6-1.6,5.4c0,0.2,0,0.5,0,0.8c0,1.5,0,3.4,0.9,4.8
			c0.7,1.1,1.9,1.7,3,2.1l0.2,0.1c1.1,0.4,2,0.7,2.7,1.5c0.6,0.8,1.1,1.8,1.4,3.2c0.7,2.9,0.9,5.7,1.2,8.7c0,0.4,0.1,0.8,0.1,1.2
			c0.1,1.4,0.6,2.5,1.4,3.2c0.8,0.8,1.9,1.1,2.9,1.1c1.3,0,2.6-0.4,3.6-1.1c2.4-1.5,3.1-3.8,3.8-6c0.1-0.4,0.3-0.9,0.4-1.3
			c0.5-1.5,1.1-3,1.8-5c0.2-0.4,0.3-0.8,0.4-1.2c0.4-1.1,0.7-2,1.4-2.9c1.2-1.4,3.1-2.2,5-3c0.5-0.2,1.1-0.5,1.7-0.7
			c2.3-1.1,4.6-2.2,6.9-3.2c0.5-0.2,1.1-0.5,1.6-0.7c1.2-0.5,2.5-1.1,3.7-1.8l0,0c1.1-0.7,2.7-1.8,2.8-3.3c0-0.2,0-0.4,0-0.7
			c0-1,0.1-2,0.6-2.6c1.2-1.3,1.8-2.2,2.1-2.7h6.7v12.5c-3.4,0.5-6.4,2.7-7.7,5.5c-1,2.3-4.1,3-5,3.2c-0.8,0.2-5.7,1.3-9,3.2
			c-3.1,1.7-3.4,4.3-3.7,6.7c-0.1,0.5-0.1,1.1-0.2,1.6c-0.4,2.2-1.2,3-1.8,3.5c-0.1,0.1-0.3,0.2-0.4,0.4c-0.4,0.4-3.6,2.6-6.4,4.6
			l-0.1,0c-2.8,2.3-4.3,5.4-5,7.9C52,102.1,51.8,103.1,51.7,103.8z M102.7,94.2c-1.5-1.6-3.9-3-7.4-2.7c-1.2-0.2-1.3-1.3-1.3-1.7
			v-6.9c0-0.6-0.5-1.2-1.2-1.2h0c-0.6,0-1.2,0.5-1.2,1.2v6.9c0,2.9,2.3,3.9,3.5,4l0.1,0l0.1,0c1.3-0.1,2.3,0.1,3.2,0.4
			c3.1,1.1,4,4.2,4.1,4.4c0,0.1,0,0.1,0.1,0.2c-0.2,2.8-2.6,5-5.5,5H53.8c0.1-0.7,0.3-1.7,0.7-2.8c0.7-2.1,1.9-4.5,4.1-6.3
			c1.5-1,6.1-4.2,6.7-4.9c0.1-0.1,0.2-0.2,0.3-0.3c0.7-0.7,1.9-1.8,2.4-4.6c0.1-0.6,0.2-1.1,0.2-1.7c0.3-2.3,0.5-4,2.7-5.2
			c3.1-1.8,7.7-2.9,8.4-3c1.5-0.3,5.1-1.3,6.5-4.3c1-2.1,3.3-3.8,5.8-4.3v11.1c0,0.6,0.5,1.2,1.2,1.2h0c0.6,0,1.2-0.5,1.2-1.2V51.8
			v-1v-1v-2.7c0-0.2,0.3-0.8,1-1.2c0.8-0.5,1.8-0.5,3-0.2c3.2,1,4.5,3.7,4.7,4.2l0.2,0.4L102.7,94.2z"/>
		<path id="R_scroll_fold" class="st6" d="M102.5,49.9c-0.1-0.5-1.4-3.2-4.7-4.2c-1.2-0.4-2.2-0.3-3,0.2c-0.7,0.4-0.9,1-1,1.2v2.7v1
			v1v25.6c0,0.6-0.5,1.2-1.2,1.2h0v3.1h0c0.6,0,1.2,0.5,1.2,1.2v6.9c0,0.3,0.1,1.5,1.3,1.7c3.5-0.2,5.8,1.1,7.4,2.7l0.1-43.9
			L102.5,49.9z"/>
		<path id="L_scroll_fold" class="st6" d="M30.7,59.1c-0.6,0-1.2-0.5-1.2-1.2v-6.1v-1v-1v-2.7c0-0.2-0.3-0.8-1-1.2
			c-0.8-0.5-1.8-0.5-3-0.2c-0.6,0.2-1.1,0.4-1.6,0.7c-2.1,1.2-3.1,3.1-3.2,3.5c0,0,0,7,0,7.4v0.5v36.4c1.5-1.6,3.9-2.9,7.4-2.7
			c0.4-0.1,1.3-0.3,1.3-1.7V63c0-0.6,0.5-1.2,1.2-1.2c0,0,0,0,0,0L30.7,59.1C30.7,59.1,30.7,59.1,30.7,59.1z"/>
	</g>
	<g>
		<path class="st7" d="M13,36.3c-1.9,0-3.7-0.2-5.4-0.6c-1.7-0.4-3.2-1-4.4-1.7l0.6-6.5c1.5,0.9,3,1.6,4.6,2.1
			c1.6,0.5,3.1,0.8,4.5,0.8c1.6,0,2.8-0.3,3.8-1c1-0.7,1.5-1.5,1.5-2.6c0-0.8-0.2-1.4-0.7-1.8c-0.5-0.4-1.1-0.8-1.9-1.1
			c-0.8-0.3-1.6-0.7-2.6-1.1c-1.1-0.5-2.2-0.9-3.3-1.4c-1.1-0.5-2.2-1.1-3.1-1.8c-1-0.7-1.7-1.6-2.3-2.7c-0.6-1.1-0.9-2.5-0.9-4.2
			c0-3.1,1.1-5.5,3.2-7.4c2.1-1.8,5.1-2.7,8.8-2.7c2.9,0,5.8,0.6,8.8,1.8L23,10.7c-1.2-0.7-2.5-1.2-3.9-1.6
			c-1.4-0.4-2.7-0.6-3.9-0.6c-1.5,0-2.7,0.3-3.6,0.9c-0.8,0.6-1.3,1.4-1.3,2.4c0,0.9,0.3,1.7,1.1,2.2c0.7,0.5,1.6,1,2.7,1.4
			c1.1,0.5,2.3,0.9,3.5,1.4c1.3,0.5,2.5,1.1,3.7,1.8c1.2,0.7,2.1,1.7,2.9,2.9c0.7,1.2,1.1,2.8,1.1,4.7c0,3.2-1.1,5.6-3.2,7.4
			C19.9,35.4,16.9,36.3,13,36.3z"/>
		<path class="st7" d="M45.1,36.3c-5.2,0-9.2-1.4-12.2-4.2c-2.9-2.8-4.4-6.8-4.4-11.9c0-3.6,0.7-6.6,2.1-9.3
			c1.4-2.6,3.3-4.7,5.9-6.1c2.5-1.5,5.5-2.2,8.8-2.2c1.4,0,2.8,0.1,4.1,0.4c1.3,0.3,2.6,0.6,3.8,1.1l-1.3,6.3
			c-1.1-0.5-2.2-0.9-3.2-1.1c-1.1-0.3-2.2-0.4-3.2-0.4c-3,0-5.4,1-7.1,2.9s-2.6,4.5-2.6,7.7c0,3.3,0.9,5.8,2.7,7.7
			c1.8,1.8,4.3,2.7,7.6,2.7c1,0,2-0.1,3.1-0.3c1.1-0.2,2.1-0.4,3.1-0.8l1.1,6C50.8,35.9,48.1,36.3,45.1,36.3z"/>
		<path class="st7" d="M67.6,35.7l-11-32.5h7.8L72.1,28l7.7-24.8h7.3L76.1,35.7H67.6z"/>
		<path class="st7" d="M92,35.7V3.1h8.3L113.7,26V3.1h6.5v32.5H112l-13.6-23v23H92z"/>
	</g>
	<g>
		<path class="st7" d="M7.8,149.7c-0.8,0-1.7-0.1-2.6-0.2c-0.9-0.2-1.8-0.4-2.6-0.8l1.9-5.9c0.4,0.2,0.8,0.4,1.3,0.6
			c0.4,0.1,0.9,0.2,1.3,0.2c0.7,0,1.3-0.2,1.8-0.7c0.4-0.5,0.7-1.2,0.7-2.3v-24.1h6.8v24.7c0,2.6-0.8,4.7-2.3,6.3
			C12.5,149,10.4,149.7,7.8,149.7z"/>
		<path class="st7" d="M26.7,149v-32.5c0.7,0,1.6,0,2.5,0c0.9,0,1.9,0,2.9,0c1,0,2,0,3,0c1,0,1.8,0,2.5,0c3.8,0.1,6.6,1.1,8.4,2.8
			c1.8,1.7,2.6,4,2.6,6.7c0,2.4-0.6,4.4-1.8,6.1c-1.2,1.7-2.9,2.8-5.1,3.3c0.7,0.6,1.5,1.4,2.2,2.4c0.7,1,1.7,2.5,2.9,4.4
			c0.6,0.9,1.1,1.8,1.5,2.5c0.4,0.7,0.8,1.4,1.2,2.1c0.4,0.7,0.8,1.4,1.3,2.3h-8.2l-5.5-10.3c-0.6-1.1-1.2-1.8-1.7-2.1
			c-0.5-0.2-1.2-0.4-2.1-0.4V149H26.7z M33.5,130.9h3c1.7,0,3-0.4,4-1.3c0.9-0.8,1.4-2,1.4-3.4c0-2.7-1.7-4-5-4h-3.4V130.9z"/>
		<path class="st7" d="M57,149v-32.5h8.3l13.5,22.8v-22.8h6.5V149h-8.2l-13.6-23v23H57z"/>
		<path class="st7" d="M100.7,149v-13.5l-10.9-19h8l6.6,12.9l6.5-12.9h7.8l-10.9,19V149H100.7z"/>
	</g>
</g>
</svg>
