<?xml version="1.0" encoding="utf-8"?>
<!-- Generator: Adobe Illustrator 27.9.0, SVG Export Plug-In . SVG Version: 6.00 Build 0)  -->
<svg version="1.1" id="Layer_1" xmlns="http://www.w3.org/2000/svg" xmlns:xlink="http://www.w3.org/1999/xlink" x="0px" y="0px"
	 viewBox="0 0 427.7 312.9" style="enable-background:new 0 0 427.7 312.9;" xml:space="preserve">
<style type="text/css">
	.st0{fill:#F6D6A2;}
	.st1{fill:#C46B29;}
	.st2{fill:#A7551F;}
	.st3{fill:#F1C481;}
	.st4{fill:#2C2728;}
	.st5{fill:#161515;}
	.st6{fill:#FDF2E2;}
</style>
<path id="background" class="st0" d="M192.5,247.6l0.3-0.2c14-9.5,29.6-20.5,31.4-22.4c0.5-0.6,1.1-1.1,1.8-1.7
	c2.9-2.7,6.9-6.4,8.8-17.2c0.5-2.6,0.8-5.2,1.1-7.8c1.5-12,3-24.4,18.1-32.9c16.5-9.4,40.2-15.1,44.2-15.9
	c4.4-0.8,19.3-4.4,24.4-15.5c6.4-14,21.1-24.4,37.5-27V45.8h-32.9c-1.6,2.6-4.5,6.6-10.2,13.2c-2.6,3-2.8,7.9-3.1,12.7
	c-0.1,1.1-0.1,2.2-0.2,3.3c-0.6,7.5-8,12.7-13.6,16.1l-0.2,0.1c-5.8,3.5-12,6.2-18.1,8.8c-2.7,1.2-5.3,2.3-7.9,3.5
	c-11.3,5.3-22.6,10.6-33.9,15.8c-2.6,1.2-5.4,2.4-8.1,3.5c-9.2,3.9-18.8,7.9-24.5,14.8c-3.3,4-5,8.9-6.7,14
	c-0.6,1.9-1.3,3.9-2.1,5.9c-3.8,9.8-6.6,17.4-9,24.6c-0.7,2.1-1.3,4.2-2,6.3c-3.3,10.9-6.7,22.3-18.6,29.6c-5,3.1-11.3,5.2-17.4,5.2
	c-5.2,0-10.3-1.5-14.3-5.2c-3.8-3.5-6-8.7-6.7-15.5c-0.2-1.9-0.3-3.8-0.5-5.7c-1.3-14.7-2.6-28.5-5.8-42.5c-1.6-6.8-3.8-12-6.8-15.7
	c-3.1-3.8-7.7-5.5-13-7.5l-1-0.4c-5.3-1.9-11.2-4.6-14.8-10.1c-4.5-6.8-4.4-16.1-4.3-23.5c0-1.3,0-2.6,0-3.9c-0.1-9,0.8-19.2,8-26.6
	c4.6-4.7,10.1-7.9,15.3-11c1.6-0.9,3.2-1.9,4.8-2.9c2.8-1.8,3.8-4.6,4.1-7H67.6v29.9c0,3.1-2.5,5.6-5.6,5.6v13.5
	c3.1,0,5.6,2.5,5.6,5.6v131.2c0,14.1-11.2,18.9-17.2,19.4l-0.5,0l-0.5,0c-28.3-2.1-35.2,22.1-35.5,23.2c-0.1,0.3-0.2,0.6-0.3,0.9
	c0.3,4,1.6,7.8,3.5,11.1h150.8C171.6,274.2,178.7,258.7,192.5,247.6z M128.8,277.3c-0.7,0.3-1.4,0.4-2,0.4c-1.9,0-3.8-1.1-4.6-3
	c-2.5-5.7-10.2-16.7-14-16.7c-2.5,0.4-9.4,8.6-14.3,17.2c-1.4,2.4-4.4,3.2-6.8,1.8c-2.4-1.4-3.2-4.4-1.8-6.8
	c3.8-6.7,13.8-22.2,23-22.2c12.8,0,23.1,22.4,23.2,22.6C132.5,273.2,131.3,276.2,128.8,277.3z"/>
<path id="brown_top_L" class="st1" d="M118,61.2c-1.6,1-3.3,2-5,3c-4.9,2.9-9.6,5.6-13.3,9.4c-4.6,4.8-5.2,12.2-5.2,19.5
	c0,1.3,0,2.7,0,4.1c-0.1,6.4-0.2,13.6,2.6,17.8c2,3,6.1,4.9,9.9,6.2l1,0.4c6.2,2.3,12.6,4.6,17.5,10.6c4,4.9,6.8,11.4,8.7,19.7
	c3.3,14.7,4.7,29.5,6,43.9c0.2,1.9,0.3,3.8,0.5,5.7c0.4,4.3,1.6,7.3,3.5,9.1c5.3,4.9,14.7,2,19.7-1.1c8.6-5.3,11.2-14,14.3-23.9
	c0.6-2.2,1.3-4.4,2.1-6.6c2.5-7.4,5.3-15.1,9.2-25.1c0.7-1.8,1.3-3.7,1.9-5.5c2-5.8,4-11.8,8.5-17.2c7.3-8.8,18.5-13.5,28.4-17.7
	c2.7-1.1,5.3-2.2,7.7-3.4c11.3-5.2,22.6-10.5,33.8-15.8c2.7-1.3,5.5-2.5,8.1-3.6c5.8-2.5,11.7-5.1,16.9-8.2l0.2-0.1
	c7.9-4.7,8.7-7.5,8.7-8.3c0.1-1,0.1-2,0.2-3c0.3-5.9,0.7-13.1,5.5-18.7c2.1-2.4,3.9-4.7,5.5-6.6h-188
	C126.5,50.5,124.7,57.1,118,61.2z M187.3,80.3c3.8-6.7,13.8-22.2,23-22.2c12.8,0,23.1,22.4,23.2,22.6c1.1,2.5,0,5.5-2.5,6.6
	c-0.7,0.3-1.4,0.4-2,0.4c-1.9,0-3.8-1.1-4.6-3c-2.5-5.7-10.2-16.7-14-16.7c-2.5,0.4-9.4,8.6-14.3,17.2c-1.4,2.4-4.4,3.2-6.8,1.8
	C186.7,85.8,185.9,82.7,187.3,80.3z M126.5,107.2c3.8-6.7,13.8-22.2,23-22.2c12.8,0,23.1,22.4,23.2,22.6c1.1,2.5,0,5.5-2.5,6.6
	c-0.7,0.3-1.4,0.4-2,0.4c-1.9,0-3.8-1.1-4.6-3c-2.5-5.7-10.2-16.7-14-16.7c-2.5,0.4-9.4,8.6-14.3,17.2c-1.4,2.4-4.4,3.2-6.8,1.8
	C125.9,112.6,125.1,109.5,126.5,107.2z"/>
<path id="brown_bottom_R" class="st1" d="M387.4,277.6c5.9-5.7,6.1-18,6.4-24.7c-4.3-1.5-9.4-2.3-15.6-1.9l-0.5,0l-0.5,0
	c-5.9-0.5-17.2-5.3-17.2-19.4v-33.9c0-3.1,2.5-5.6,5.6-5.6v-15.2c-3.1,0-5.6-2.5-5.6-5.6v-54.1c-12.5,2.6-23.6,10.7-28.4,21
	c-6.9,15.1-24.5,19.9-31.7,21.2c-3.5,0.7-26,6.2-41.1,14.8c-10.7,6-11.7,14.2-13.1,25.5c-0.3,2.7-0.7,5.4-1.2,8.3
	c-2.5,14-8.3,19.5-11.8,22.7c-0.5,0.5-0.9,0.9-1.3,1.3c-3,3.2-25.8,18.8-33,23.7c-10.6,8.6-16.6,20.6-20,30.6h177.5
	C384.2,284.3,387.4,277.6,387.4,277.6z M331.1,257.7c-0.7,0.3-1.4,0.4-2,0.4c-1.9,0-3.8-1.1-4.6-3c-2.5-5.7-10.2-16.7-14-16.7
	c-2.4,0.4-9.1,8.3-13.9,16.4c2,3.4,3.2,5.9,3.2,6c1.1,2.5,0,5.5-2.5,6.6c-0.7,0.3-1.4,0.4-2,0.4c-1.9,0-3.8-1.1-4.6-3
	c-2.5-5.7-10.2-16.7-14-16.7c-2.5,0.4-9.4,8.6-14.3,17.2c-1.4,2.4-4.4,3.2-6.8,1.8c-2.4-1.4-3.2-4.4-1.8-6.8
	c3.8-6.7,13.8-22.2,23-22.2c5.1,0,9.8,3.6,13.6,7.8c4.8-7.4,12.7-17.7,20.2-17.7c12.8,0,23.1,22.4,23.2,22.6
	C334.7,253.6,333.6,256.5,331.1,257.7z"/>
<path id="dark_brown_shadow" class="st2" d="M413.6,274.2c-0.2-0.9-4.5-15.8-19.8-21.3c-0.3,6.7-0.5,19-6.4,24.7
	c0,0-3.2,6.7-31.2,8.6H178.6c-1.8,5.3-2.8,10.1-3.4,13.5h211.9c14.1,0,25.7-10.9,26.8-24.6C413.8,274.8,413.7,274.5,413.6,274.2z"/>
<path id="light_brown_shadow" class="st3" d="M17.3,286.2c4.7,8.1,13.4,13.5,23.3,13.5H165c0.5-3.3,1.4-8,3-13.5H17.3z"/>
<path class="st4" d="M128.3,114c2.4,1.4,5.5,0.6,6.8-1.8c4.9-8.6,11.8-16.7,14.3-17.2c3.8,0,11.5,11,14,16.7c0.8,1.9,2.7,3,4.6,3
	c0.7,0,1.4-0.1,2-0.4c2.5-1.1,3.7-4.1,2.5-6.6c-0.1-0.2-10.4-22.6-23.2-22.6c-9.2,0-19.1,15.5-23,22.2
	C125.1,109.5,125.9,112.6,128.3,114z"/>
<path class="st4" d="M189.1,87.2c2.4,1.4,5.5,0.6,6.8-1.8c4.9-8.6,11.8-16.7,14.3-17.2c3.8,0,11.5,11,14,16.7c0.8,1.9,2.7,3,4.6,3
	c0.7,0,1.4-0.1,2-0.4c2.5-1.1,3.7-4.1,2.5-6.6c-0.1-0.2-10.4-22.6-23.2-22.6c-9.2,0-19.1,15.5-23,22.2
	C185.9,82.7,186.7,85.8,189.1,87.2z"/>
<path class="st4" d="M108.2,248.1c-9.2,0-19.1,15.5-23,22.2c-1.4,2.4-0.6,5.5,1.8,6.8c2.4,1.4,5.5,0.6,6.8-1.8
	c4.9-8.6,11.8-16.7,14.3-17.2c3.8,0,11.5,11,14,16.7c0.8,1.9,2.7,3,4.6,3c0.7,0,1.4-0.1,2-0.4c2.5-1.1,3.7-4.1,2.5-6.6
	C131.3,270.5,120.9,248.1,108.2,248.1z"/>
<path class="st4" d="M333.6,251c-0.1-0.2-10.4-22.6-23.2-22.6c-7.5,0-15.4,10.3-20.2,17.7c-3.8-4.3-8.5-7.8-13.6-7.8
	c-9.2,0-19.1,15.5-23,22.2c-1.4,2.4-0.6,5.5,1.8,6.8c2.4,1.4,5.5,0.6,6.8-1.8c4.9-8.6,11.8-16.7,14.3-17.2c3.8,0,11.5,11,14,16.7
	c0.8,1.9,2.7,3,4.6,3c0.7,0,1.4-0.1,2-0.4c2.5-1.1,3.7-4.1,2.5-6.6c0-0.1-1.2-2.6-3.2-6c4.8-8.2,11.5-16,13.9-16.4
	c3.8,0,11.5,11,14,16.7c0.8,1.9,2.7,3,4.6,3c0.7,0,1.4-0.1,2-0.4C333.6,256.5,334.7,253.6,333.6,251z"/>
<path id="black_outline" class="st5" d="M423.9,269.5C423.9,269.5,423.9,269.5,423.9,269.5l0-237.3c-2.7-7.9-12.7-21.8-29.9-27.2
	c-12.3-3.9-20.5-0.6-25.3,2.9c-5.7,4.2-8.7,10.5-8.7,14.5v13.4H67.6V22.3c0-4-3-10.3-8.7-14.5c-4.7-3.5-13-6.8-25.3-2.9
	c-17.4,5.5-27.5,19.7-30,27.5v42.8v194.5v2.9c0,0.9,0,1.9,0.1,2.8c1.4,19.1,17.4,34.2,36.9,34.2h346.5c19.5,0,35.4-15.1,36.9-34.2
	c0.1-0.9,0.1-1.8,0.1-2.8v-2.9C424,269.7,424,269.6,423.9,269.5z M126.9,45.8h188c-1.5,1.9-3.4,4.2-5.5,6.6
	c-4.8,5.6-5.2,12.9-5.5,18.7c-0.1,1-0.1,2-0.2,3c-0.1,0.7-0.9,3.6-8.7,8.3l-0.2,0.1c-5.2,3.1-11.2,5.7-16.9,8.2
	c-2.7,1.2-5.5,2.4-8.1,3.6c-11.3,5.3-22.6,10.5-33.8,15.8c-2.5,1.1-5,2.2-7.7,3.4c-9.8,4.1-21,8.8-28.4,17.7
	c-4.5,5.4-6.5,11.4-8.5,17.2c-0.6,1.8-1.2,3.7-1.9,5.5c-3.9,10-6.7,17.7-9.2,25.1c-0.7,2.2-1.4,4.4-2.1,6.6
	c-3,10-5.6,18.6-14.3,23.9c-5,3.1-14.4,6-19.7,1.1c-1.9-1.8-3.1-4.8-3.5-9.1c-0.2-1.9-0.3-3.8-0.5-5.7c-1.3-14.4-2.6-29.2-6-43.9
	c-1.9-8.3-4.7-14.8-8.7-19.7c-4.8-6-11.2-8.4-17.5-10.6l-1-0.4c-3.8-1.4-7.9-3.2-9.9-6.2c-2.8-4.2-2.7-11.4-2.6-17.8
	c0-1.4,0-2.8,0-4.1c-0.1-7.3,0.5-14.7,5.2-19.5c3.6-3.7,8.3-6.5,13.3-9.4c1.7-1,3.4-2,5-3C124.7,57.1,126.5,50.5,126.9,45.8z
	 M165,299.7H40.6c-10,0-18.7-5.5-23.3-13.5c-1.9-3.3-3.2-7.1-3.5-11.1c0.1-0.3,0.2-0.6,0.3-0.9c0.3-1,7.1-25.3,35.5-23.2l0.5,0
	l0.5,0c5.9-0.5,17.2-5.3,17.2-19.4V100.5c0-3.1-2.5-5.6-5.6-5.6c0,0,0,0,0,0c-3.1,0-5.6,2.5-5.6,5.6v131.2c0,6.4-4.7,7.8-6.5,8.1
	c-16.9-1.1-28.6,5.4-36.1,13.3V75.3v-2.5c0-2,0-36.3,0-36.3c0.6-2,5.3-11.2,15.5-17.3c2.3-1.4,4.9-2.6,7.9-3.5
	c5.9-1.9,10.8-1.6,14.6,0.8c3.2,2,4.6,5.1,4.8,6v13.3v5v5v29.9c0,3.1,2.5,5.6,5.6,5.6c0,0,0,0,0,0c3.1,0,5.6-2.5,5.6-5.6V45.8h49.2
	c-0.3,2.4-1.3,5.2-4.1,7c-1.6,1-3.2,1.9-4.8,2.9c-5.3,3.1-10.8,6.3-15.3,11c-7.2,7.4-8.1,17.6-8,26.6c0,1.2,0,2.5,0,3.9
	c-0.1,7.4-0.2,16.7,4.3,23.5c3.6,5.5,9.5,8.2,14.8,10.1l1,0.4c5.4,1.9,10,3.6,13,7.5c3,3.7,5.2,8.9,6.8,15.7
	c3.2,14,4.4,27.9,5.8,42.5c0.2,1.9,0.3,3.8,0.5,5.7c0.6,6.8,2.9,12,6.7,15.5c4,3.7,9.1,5.2,14.3,5.2c6.2,0,12.5-2.1,17.4-5.2
	c11.9-7.3,15.3-18.6,18.6-29.6c0.6-2.1,1.3-4.2,2-6.3c2.4-7.2,5.2-14.8,9-24.6c0.8-2,1.4-4,2.1-5.9c1.7-5.2,3.4-10,6.7-14
	c5.8-6.9,15.3-11,24.5-14.8c2.7-1.1,5.5-2.3,8.1-3.5c11.3-5.2,22.6-10.5,33.9-15.8c2.6-1.2,5.2-2.3,7.9-3.5
	c6.1-2.6,12.3-5.4,18.1-8.8l0.2-0.1c5.5-3.3,13-8.6,13.6-16.1c0.1-1,0.1-2.1,0.2-3.3c0.2-4.8,0.5-9.7,3.1-12.7
	c5.7-6.6,8.6-10.6,10.2-13.2h32.9v61.2c-16.4,2.7-31.1,13.1-37.5,27c-5.1,11.1-20,14.7-24.4,15.5c-4,0.7-27.7,6.5-44.2,15.9
	c-15,8.5-16.6,20.9-18.1,32.9c-0.3,2.6-0.6,5.2-1.1,7.8c-1.9,10.7-5.9,14.5-8.8,17.2c-0.6,0.6-1.2,1.2-1.8,1.7
	c-1.9,1.9-17.5,12.9-31.4,22.4l-0.3,0.2c-13.8,11.1-20.8,26.5-24.4,38.6C166.4,291.7,165.5,296.4,165,299.7z M414,253.1
	c-7.5-8-19.3-14.4-36.1-13.3c-6.1-0.9-6.6-6.4-6.6-8.1v-33.9c0-3.1-2.5-5.6-5.6-5.6h0c-3.1,0-5.6,2.5-5.6,5.6v33.9
	c0,14.1,11.2,18.9,17.2,19.4l0.5,0l0.5,0c6.2-0.5,11.3,0.3,15.6,1.9c15.4,5.5,19.6,20.4,19.8,21.3c0.1,0.3,0.2,0.6,0.3,0.9
	c-1.2,13.8-12.8,24.6-26.8,24.6H175.2c0.6-3.4,1.6-8.2,3.4-13.5c3.4-10,9.4-22,20-30.6c7.2-4.9,30-20.5,33-23.7
	c0.4-0.4,0.8-0.8,1.3-1.3c3.5-3.3,9.3-8.7,11.8-22.7c0.5-2.8,0.9-5.6,1.2-8.3c1.4-11.3,2.4-19.4,13.1-25.5
	c15.1-8.6,37.6-14.1,41.1-14.8c7.2-1.4,24.8-6.1,31.7-21.2c4.7-10.4,15.9-18.5,28.4-21v54.1c0,3.1,2.5,5.6,5.6,5.6h0
	c3.1,0,5.6-2.5,5.6-5.6V45.8v-5v-5V22.4c0.2-0.9,1.6-3.9,4.8-6c3.8-2.4,8.7-2.6,14.6-0.8c15.7,5,22.1,18.1,22.7,20.5l0.9,2.1
	L414,253.1z"/>
<path id="R_scroll_fold" class="st6" d="M413.4,36.1c-0.7-2.4-7.1-15.5-22.7-20.5c-5.9-1.9-10.8-1.6-14.6,0.8c-3.2,2-4.6,5.1-4.8,6
	v13.3v5v5v125.4c0,3.1-2.5,5.6-5.6,5.6h0V192h0c3.1,0,5.6,2.5,5.6,5.6v33.9c0,1.7,0.5,7.2,6.6,8.1c16.9-1.1,28.6,5.4,36.1,13.3
	l0.3-214.8L413.4,36.1z"/>
<path id="L_scroll_fold" class="st6" d="M62,81.3c-3.1,0-5.6-2.5-5.6-5.6V45.8v-5v-5V22.4c-0.2-0.9-1.6-3.9-4.8-6
	c-3.8-2.4-8.7-2.6-14.6-0.8c-2.9,0.9-5.5,2.2-7.9,3.5C19,25.3,14.2,34.5,13.7,36.5c0,0,0,34.3,0,36.3v2.5v177.8
	c7.5-8,19.3-14.4,36.1-13.3c1.9-0.3,6.5-1.7,6.5-8.1V100.5c0-3.1,2.5-5.6,5.6-5.6c0,0,0,0,0,0L62,81.3C62,81.3,62,81.3,62,81.3z"/>
</svg>
